# xmcd CD database file
#
# Track frame offsets:
#	150
#	22055
#	54406
#	78708
#	134557
#	162521
#	203336
#	213154
#
# Disc length: 3485 seconds
#
# Revision: 0
# Processed by: cddbd v1.5.1PL2 Copyright (c) Steve Scherf et al.
# Submitted via: CDex 1.51
#
DISCID=6c0d9b08
DTITLE=Nostalgia 77 Octet - Borderlands
DYEAR=2006
DGENRE=Jazz
TTITLE0=One For Nan
TTITLE1=Question
TTITLE2=Layer Lines
TTITLE3=The Cat
TTITLE4=Tad More
TTITLE5=Lotus Tree
TTITLE6=Chorale
TTITLE7=Desert Fairy Princess
EXTD=YEAR: 2006
EXTT0=
EXTT1=
EXTT2=
EXTT3=
EXTT4=
EXTT5=
EXTT6=
EXTT7=
PLAYORDER=
